<?xml version="1.0" encoding="utf-8"?>
<!-- Generator: Adobe Illustrator 23.0.0, SVG Export Plug-In . SVG Version: 6.00 Build 0)  -->
<svg version="1.1" id="Laag_1" xmlns="http://www.w3.org/2000/svg" xmlns:xlink="http://www.w3.org/1999/xlink" x="0px" y="0px"
	 viewBox="0 0 1280 486.94" style="enable-background:new 0 0 1280 486.94;" xml:space="preserve">
<style type="text/css">
	.st0{fill:#CDC2C6;}
	.st1{fill:#756454;}
	.st2{fill:#713510;}
	.st3{fill:#F9AC5D;}
	.st4{fill:#F0482D;}
	.st5{fill:#F8C286;}
	.st6{opacity:0.18;fill:#FFFFFF;}
	.st7{fill:#FCFCFC;}
	.st8{fill:#0F100A;}
	.st9{fill:#97826A;}
	.st10{fill:#60655E;}
</style>
<path class="st1" d="M1230.63,180.25c-1.58-4.75-6.33,0.79-10.29,0c-3.96-0.79,0-13.25,0-13.25h-37.19h-38.77h-15.31
	c0,0-6.05-12.86-1.96-19.19c4.09-6.33,1.44-9.49-4.89-15.82c-6.33-6.33,6.33-7.91,4.75-12.66s-9.49-3.16-10.29,2.37
	c-0.79,5.54-7.12,7.91-7.12,7.91s-3.96,12.66-3.96,16.62s-3.96,10.29-9.49,10.29c-5.54,0-9.49,1.58-14.24,3.16
	c-4.75,1.58-12.66,0-18.2-1.58c-5.54-1.58-16.62,4.75-20.57,7.12c-3.96,2.37-15.82,2.37-18.99,0c-3.16-2.37,9.49-8.7,5.54-10.29
	c-3.96-1.58,2.37-11.08,0-14.22c-2.37-3.15-21.36-7.14-21.36-7.14s-32.44,0-40.35,1.58c-7.91,1.58-6.33-9.49-9.49-10.29
	c-3.16-0.79-11.87,5.54-14.24,11.68c-2.37,6.14-5.54,4.94-15.03,0s3.16-6.14,0-6.14c-3.16,0-2.37-11.08-6.33-7.12
	c-3.96,3.96-7.91-9.49-15.03-7.12c-7.12,2.37-6.33,6.33-7.12,13.45c-0.79,7.12-16.62,5.54-16.62,5.54c-1.58,2.11-1.58,1.58-6.07,0
	c-4.48-1.58-1.32-6.59-3.96-10.55c-2.64-3.96,2.37-17.67,1.58-19.78c-0.79-2.11-6.07-2.37-5.8,1.58c0.26,3.96-5.01,13.45-6.59,13.45
	s-2.9-2.11-2.64,0c0.26,2.11-2.37,7.91-5.27,10.29c-2.9,2.37-6.86,2.37-10.81-5.8c-3.96-8.18-5.27-10.02-8.13-10.55
	s-2.42-15.82-1.36-17.62s2.9-6.64-1.05-9.42s-2.37-8.82-2.37-12.25s-0.79-12.66-3.69-12.66c-2.9,0-3.43-1.58-5.54-9.49
	c-2.11-7.91-9.76-7.65-10.02-10.29c-0.26-2.64,0.26-10.55-1.85-12.11s1.05-9.25,0-11.89c-1.05-2.64-2.37,0.79-7.65,1.32
	c-5.27,0.53-4.48,8.18-4.75,17.41s-0.79,3.43-2.82,8.7c-2.03,5.27-2.19,2.9-8.52,4.75s-11.08,11.34-11.08,11.34
	s-241.05-2.64-248.18,0c-7.12,2.64-6.07-0.26-6.86-9.49c-0.79-9.23-2.37-8.18-4.75-7.65c-2.37,0.53-2.11,26.64-2.11,26.64
	c-10.68,0.51-7.79,25.1-7.79,25.1c-1.46-0.22-5.26,0.22-6.85,3.11c-1.58,2.89-5.54,1.85-6.33-3.11c-0.79-4.96-1.58-8.49-4.35-9.42
	s-3.96-3.81-3.42-7.37c0.54-3.56-4.1-13.45-7.07-14.76c-2.97-1.31-1.98-9.96-5.74-9.09s-3.16,17.52-4.35,22.27
	c-1.19,4.75-7.12,1.58-9.46,0.99c-2.34-0.59-0.3-21.96-0.04-25.38c0.26-3.43-0.79-5.01-5.54-3.69s-7.91,3.43-12.13-3.43
	s-6.86-1.32-6.33-7.65c0.53-6.33-1.32-6.59-3.16-8.68c-1.85-2.09,2.64-6.62-2.37-6.62c-5.01,0-4.75,32.18-5.54,43.25
	c-0.79,11.08-2.64,14.24-6.33,15.82c-3.69,1.58-7.38,20.57-10.29,26.37c-2.9,5.8-8.44-1.32-10.81-7.38
	c-2.37-6.07-7.12-15.56-12.13-14.65s-4.75-7.24-4.48-10.14c0.26-2.9,4.48-1.32,8.7-2.9c4.22-1.58,1.58-2.9,0-4.22s0-9.49,0-9.49
	s-5.01,0-8.18,0c-3.16,0-3.69-15.03-1.85-15.82c1.85-0.79,5.27-5.8,1.05-6.86s-5.27-5.01-6.86-12.66c-1.58-7.65-13.45-5.8-13.45-5.8
	V0.12h-12.66c0,0,1.58,11.87,0,19.52c-1.58,7.65-5.8,5.27-10.81,11.87s-1.85,33.49-2.11,38.77c-0.26,5.27-8.44,10.02-8.44,10.02
	c-12.13-7.65-23.69,17.27-28.48,15.87c-4.79-1.4-3.56,28.7-3.56,28.7s-5.93,2.37-17.8-1.19c-11.87-3.56-5.93-10.68-10.68-17.8
	c-4.75-7.12-15.43,5.93-23.74,13.05c-8.31,7.12-10.68,0-16.62-7.12c-5.93-7.12-18.99,7.12-23.74,14.24
	c-4.75,7.12-21.36,9.49-18.99,2.37c2.37-7.12-4.75-17.8-9.49-17.8s-3.56-23.88-3.56-23.88l1.19-15.29l4.75-18.99
	c0,0-10.68-4.75-14.24-4.75s-5.93,7.12-5.93,11.87s-2.37,10.68-7.12,10.68s-2.37,16.47-2.37,16.47h-15.43l2.37-22.14
	c0,0-11.87-1.46-18.99,0c-7.12,1.46-7.12,8.04-8.31,15.16c-1.19,7.12-2.37,10.68-8.31,16.4c-5.93,5.72-7.12,8.52-8.64,15.65
	c-1.52,7.12-16.29,26.11-22.22,26.11s1.19-17.8,1.19-17.8s7.12-23.74,0-20.84c-7.12,2.89-4.75-5.27-10.68-12.53S0,128.03,0,128.03
	v358.91h1280V180.33C1280,180.33,1232.21,184.99,1230.63,180.25z M370.32,86.74h-7.12l-1.05-12.44h8.18V86.74z M370.32,57.08h-10.55
	V41.52h10.55V57.08z M437.77,70.53h10.35c0,0,0,6.07,0,6.86c0,0.79-10.42-2.11-10.35,0C437.84,79.5,436.12,70.53,437.77,70.53z
	 M443.63,110.62c-1.58,1.05-2.9,1.85-2.77,3.96c0.13,2.11,1.16,5.01-0.8,4.48c-1.96-0.53-5.39-1.32-5.39-2.9
	c0-1.58,1.32-10.55,1.32-10.55h6.6C442.58,105.61,445.21,109.57,443.63,110.62z M448.12,92.42c-0.79,2.37-2.91,5.54-4.49,5.01
	s-6.32,0.26-6.58-1.32c-0.27-1.58-1.06-9.37-1.06-9.37s9.49-1.99,10.02,0S448.91,90.05,448.12,92.42z M447.86,64.61
	c-2.11,0.14-3.16-1.46-6.99-1.99c-3.83-0.53-3.03-1.58-3.03-5.54s1.85-2.37,1.85-2.37s9.76-0.26,9.76,1.05
	S449.97,64.47,447.86,64.61z M821.84,115.9h-11.08l1.32-16.62h9.76V115.9z M821.84,82.4h-9.76V67.37h9.76V82.4z"/>
</svg>
