<svg xmlns="http://www.w3.org/2000/svg" viewBox="0 0 321.01 133.55"><defs><style>.cls-1{isolation:isolate;}.cls-2{fill:#775a43;}.cls-3{fill:#405d76;}.cls-4{fill:#d4d4d4;opacity:0.55;mix-blend-mode:multiply;}.cls-5{fill:#7e6961;}.cls-6{fill:#43607b;}.cls-7{fill:#365065;}.cls-8{fill:#4b6881;}</style></defs><title>Asset 1</title><g class="cls-1"><g id="Layer_2" data-name="Layer 2"><g id="OBJECTS"><polygon class="cls-2" points="36.18 112.15 34.6 133.55 39.94 133.55 48.41 112.15 36.18 112.15"/><polygon class="cls-2" points="283.5 112.15 285.07 133.55 279.74 133.55 271.27 112.15 283.5 112.15"/><path class="cls-3" d="M32,63.26l5.31-45C38.77,7.84,49,0,61.07,0h196.5c11.66,0,21.62,7.29,23.59,17.26l7.68,46Z"/><path class="cls-4" d="M287.75,38.13S268,43.4,260.17,54.49H60.64S55.33,39,36.8,39.15V66.26h253Z"/><rect class="cls-5" x="30.36" y="103.34" width="259.48" height="11.15"/><path class="cls-6" d="M307.06,34.16H301.4a31.79,31.79,0,0,0-25.72,13A48.38,48.38,0,0,0,269.3,60.6L160.51,62.33,51.71,60.6a48.38,48.38,0,0,0-6.38-13.46,31.77,31.77,0,0,0-25.71-13H14c-10.79,0-15.71,10-13.38,20.5C3.41,67.57,7,84.35,16.74,98.26A25,25,0,0,0,37.23,108.7H283.78a25,25,0,0,0,20.49-10.44c9.79-13.91,13.33-30.69,16.18-43.6C322.77,44.12,317.86,34.16,307.06,34.16Z"/><path class="cls-7" d="M277.57,85.71H43.43a5.92,5.92,0,0,1-5.92-5.92h0A18.74,18.74,0,0,1,56.26,61H266.65a16.84,16.84,0,0,1,16.84,16.83v1.92A5.92,5.92,0,0,1,277.57,85.71Z"/><path class="cls-8" d="M154.31,82.28H42.68a5.17,5.17,0,0,1-5.17-5.17h0A16.53,16.53,0,0,1,54,60.58H154.31a5.17,5.17,0,0,1,5.18,5.17V77.11A5.18,5.18,0,0,1,154.31,82.28Z"/><path class="cls-8" d="M278.31,82.28H166.68a5.18,5.18,0,0,1-5.17-5.17V65.75a5.17,5.17,0,0,1,5.17-5.17H267a16.53,16.53,0,0,1,16.53,16.53h0A5.18,5.18,0,0,1,278.31,82.28Z"/></g></g></g></svg>