<?xml version="1.0" encoding="utf-8"?>
<!-- Generator: Adobe Illustrator 23.0.0, SVG Export Plug-In . SVG Version: 6.00 Build 0)  -->
<svg version="1.1" id="Laag_1" xmlns="http://www.w3.org/2000/svg" xmlns:xlink="http://www.w3.org/1999/xlink" x="0px" y="0px"
	 viewBox="0 0 496.28 762.39" style="enable-background:new 0 0 496.28 762.39;" xml:space="preserve">
<style type="text/css">
	.st0{fill:#CDC2C6;}
	.st1{fill:#756454;}
	.st2{fill:#713510;}
	.st3{fill:#F9AC5D;}
	.st4{fill:#F0482D;}
	.st5{fill:#F8C286;}
	.st6{opacity:0.18;fill:#FFFFFF;}
	.st7{fill:#FCFCFC;}
	.st8{fill:#0F100A;}
	.st9{fill:#97826A;}
	.st10{fill:#60655E;}
</style>
<path class="st2" d="M155.89,79.39c3.71,2.78,14.28,8.13,23.77,9.7c-1.05-4.94-2.84-0.69-3.77-13.7c-1-14-5-15-7-17s1-12,0-16
	s-1-20,0-23s-5-7-9-8c-1.44-0.36-2.88-1.24-4.22-2.36c-0.29,6.67-0.78,19.79-0.78,34.36C154.89,64.39,151.89,76.39,155.89,79.39z"/>
<path class="st3" d="M148.89,56.39c0,4,2,9,1,15s1,2,0,8s-4,11-3,13s6,2,7,7s1,4,5,3s7-2,8-5s5-4,7-2s3-0.04,6-2.02v-2.98
	c-0.07-0.5-0.15-0.93-0.23-1.3c-9.49-1.57-20.06-6.92-23.77-9.7c-3.26-2.45-1.87-10.87-1.25-25.28
	C152.63,53.75,148.89,53.47,148.89,56.39z"/>
<path class="st1" d="M310.89,234.39c0,0,14,9,17,14c0,0-1,2-2,2s-15-14-18-16S310.89,234.39,310.89,234.39z"/>
<path class="st1" d="M318.89,253.39c0,0,23,7,24,11s-4,2-6,1s-15-8-19-10C313.89,253.39,318.89,253.39,318.89,253.39z"/>
<path class="st2" d="M230.89,67.39c-1,6-2,5,0,9s8,9,11,12s5,12,8,12s4,3,4,7s6,5,7,5s2,10,2,16s5,5,6,4s4,2,2,7s-4,6-3,10s3,7,0,8
	s-6-4-6,2s-2,43,2,44s22,0,27,7s9,12,11,14s-3,15,0,16s10,3,6,7s-9,4-10,10c-1,6-6,2-9,6s-8,3-9,2s-5,4-5,5c0,0-12-5-12,1s0,51,0,51
	s0,3,4,3s35-2,36,0s1,6,4,10s-3,8,5,11s9,8,4,14s-8,1-8,4s1,21-4,22s-10-3-10,2s-9,10-17,8s-13-1-14,9s3,23,7,20s15,0,19,3s7,6,12,9
	s7,0,8-2s10,1,13,6s4,1,11,5s11,3,14,9c0,0,7.06-3.55,11.03,4.22v0c-0.11-0.52-0.12-0.93-0.03-1.22c1-3-1-15-1-22s-7-39-10-46
	s-4-33-4-40s-1-24-1-27s-15-9-14-14s0-7,0-7c-4-3-1-2-4-6s-5-18-3-24s0-21-1-24s-3,3-4,0s-5-9-5-9c3-7,0-7,0-12s-1-6-1-6
	c-9-2-9-7-9-7s-1-36-1-48s-5-15-7-17s1-15-1-21s1-13-1-14s-3-1-5-6s-5-5-14-6s-11,4-10-6s-6-1-10-8s-7-6-9-6s-4-9-4-15s-4-6-8-8
	c-0.62-0.31-1.29-0.54-1.99-0.72C230.01,60.31,231.55,63.4,230.89,67.39z"/>
<path class="st4" d="M4.89,178.39c0,0-5,7,6,26c0,0-4,20,4,29s19,19,20,24c1,5,5,2,6,0c1-2,5-2,6,0c1,2,25,3,26,1s-1-28-6-33
	s-5-17-4-23s-2-14-2-14L4.89,178.39z"/>
<path class="st5" d="M95.89,195.39c0,0-86-20-95-20c0,0-2,6,0,5s5-2,8-1s87,20,87,20V195.39z"/>
<g>
	<path class="st6" d="M267.89,157.39c1.39-0.46,1.7-1.36,1.54-2.57c-2.63,0.83-4.67,1.39-5.97,1.62
		C264.61,156.7,266.25,157.94,267.89,157.39z"/>
	<path class="st2" d="M262.57,156.54c0.24-0.01,0.53-0.04,0.89-0.1C263.12,156.36,262.82,156.37,262.57,156.54z"/>
	<path class="st3" d="M217.89,64.39c1-1,2,0,2,3s0,10,2,11s4-1,4,1s-1,5,1,6s3,0,3,3s1,7,0,12s-1,9,0,8s3,1,0,4s-6,8-7,12s-7,5,0,10
		s19,9,19,13s-2,15,1,13s3-7,8-6s9-1,11,2c0.08,0.12,0.32,0.16,0.69,0.14c0.24-0.17,0.54-0.18,0.89-0.1
		c1.3-0.22,3.34-0.78,5.97-1.62c-0.18-1.42-1-3.27-1.54-5.43c-1-4,1-5,3-10s-1-8-2-7s-6,2-6-4s-1-16-2-16s-7-1-7-5s-1-7-4-7
		s-5-9-8-12s-9-8-11-12s-1-3,0-9c0.66-3.99-0.88-7.09-1.99-8.72c-3.78-0.96-8.32-0.13-10.01,0.72c-0.05,0.02-0.1,0.04-0.16,0.06
		c-0.95,1.1-1.84,2.52-1.84,3.94C216.89,66.39,216.89,65.39,217.89,64.39z"/>
</g>
<g>
	<path class="st3" d="M420.89,575.39c-5-2-17-10-18-15s-6-12-13-19s-5-6-6-11s-3-4-3-14c0-10-13-9-13-24
		c0-13.55-8.98-27.92-9.97-32.78v0c-3.97-7.78-11.03-4.22-11.03-4.22c-3-6-7-5-14-9s-8,0-11-5s-12-8-13-6s-3,5-8,2s-8-6-12-9
		s-15-6-19-3s-8-10-7-20s6-11,14-9s17-3,17-8s5-1,10-2s4-19,4-22s3,2,8-4s4-11-4-14s-2-7-5-11s-3-8-4-10s-32,0-36,0s-4-3-4-3
		s0-45,0-51s12-1,12-1c0-1,4-6,5-5s6,2,9-2s8,0,9-6c1-6,6-6,10-10s-3-6-6-7s2-14,0-16s-6-7-11-14s-23-6-27-7
		c-0.78-0.19-1.33-1.77-1.71-4.21c-0.56,5.99-0.76,11.16-0.29,10.21c1-2,11-2,11,1s13,2,13,2c-1,2-1,9,0,17s-3,12-6,12s-6,10-9,11
		s-8,3-6,5c2,2,1,6-2,5s-7,2-8,5s8,8,2,6s-7,0-11-1s1-5,1-8s-5,1-2-2s2-4-5-5s0-6,0-12s2-14,6-18s1-15,0-19s-1-7-6-9s-9,3-11,6
		s-8,2-14,1s-4,4-8,3s-15,2-18,0s-3-1-7-1s-6-3-6-6s30-36,31-42s-7-8-14-7s-9-3-5-5s5-3,2-3s-4,0-8-5s-3,0-8,2s-12-2-18-4s-7,4-7,9
		s0,9-1,10s-5,1-8,1s0,9,0,9c-2-3-7-4-13-12s-4-4-11-7s-18-5-20,6s1,20,0,24s1,7,1,7c6,6,5,5,5,11s4,5,8,10s-1,39,2,42s8,3,7,10
		c-1,7,1,5-1,11s-1,9-3,12s-6,4-11,2s-7-1-6,3s-1,4-3,3c-1.98-0.99-2.16,3.21-2.16,3.29c-0.48,15.14-0.84,29.59-0.84,40.71
		c0,37-23,429-23,429h376l17.64-15.09l13.19-26.9l15.82-40.09l4.75-40.09l-16.35-15.3l-19.52-34.15
		C460.42,590.78,425.89,577.39,420.89,575.39z"/>
	<path class="st7" d="M94.89,289.39c2,1,4,1,3-3s1-5,6-3s9,1,11-2s1-6,3-12s0-4,1-11c1-7-4-7-7-10s2-37-2-42s-8-4-8-10s1-5-5-11
		c0,0-2-3-1-7s-2-13,0-24s13-9,20-6s5-1,11,7s11,9,13,12c0,0-3-9,0-9s7,0,8-1s1-5,1-10s1-11,7-9s13,6,18,4s4-7,8-2s5,5,8,5s2,1-2,3
		s-2,6,5,5s15,1,14,7s-31,39-31,42s2,6,6,6s4-1,7,1s14-1,18,0s2-4,8-3s12,2,14-1s6-8,11-6s5,5,6,9s4,15,0,19s-6,12-6,18s-7,11,0,12
		s8,2,5,5s2-1,2,2s-5,7-1,8s5-1,11,1s-3-3-2-6s5-6,8-5s4-3,2-5c-2-2,3-4,6-5s6-11,9-11s7-4,6-12s-1-15,0-17c0,0-13,1-13-2
		s-10-3-11-1c-0.48,0.95-0.27-4.21,0.29-10.21c-1.58-10.06-0.29-34.96-0.29-39.79c0-1.74,0.25-2.55,0.69-2.86
		c-0.36,0.01-0.61-0.03-0.69-0.14c-2-3-6-1-11-2s-5,4-8,6s-1-9-1-13s-12-8-19-13s-1-6,0-10s4-9,7-12s1-5,0-4s-1-3,0-8s0-9,0-12
		s-1-2-3-3s-1-4-1-6s-2,0-4-1s-2-8-2-11s-1-4-2-3s-1,2-1-1c0-1.42,0.9-2.84,1.84-3.94c-2.35,0.76-12.84-3.06-12.84-3.06v38
		c-1-1-26,0-26,0v-1.02c-3,1.98-4,4.02-6,2.02s-6-1-7,2s-4,4-8,5s-4,2-5-3s-6-5-7-7s2-7,3-13s-1-2,0-8s-1-11-1-15
		c0-2.93,3.74-2.64,5.75-2.28c0.14-3.27,0.25-6.84,0.25-10.72c0-14.57,0.48-27.69,0.78-34.36c-2.39-1.99-4.5-4.72-5.78-6.64
		c-2-3-12-3-13-1s-6,1-9,1s-2,7-3,16s-5,24-6,34s-5,28-6,31s-15,12-15,12s0,5,0,8s-1,3-2,9s1,24-1,30s-1,54,0,67
		c0.7,9.09-1.05,48.04-2.16,83.29C92.73,292.6,92.91,288.4,94.89,289.39z"/>
</g>
<path class="st8" d="M156.89,151.39c0,0,17,0,21,1s16,0,18-1s4-1,8,1s4-1,5,0s0,32,1,41s2,12,0,13s-30.57,0.94-33.29-1.03
	s-7.71-1.97-11.71-0.97s-9-8-9-16S156.89,151.39,156.89,151.39z"/>
<path class="st8" d="M154.89,268.39c0,0,51,3,55,2c0,0-3,48,0,53c0,0-17-2-21,0s-20,0-22-2s-13,3-14-2S154.89,268.39,154.89,268.39z
	"/>
<path class="st8" d="M148.89,393.39c0,0,51,2,53,3c0,0-1,44,0,58c0,0,1,7,0,7s-18,3-22,0s-14-2-20-5s-13-1-13-1L148.89,393.39z"/>
<path class="st9" d="M302.38,226.49c0,0,39.51,15.91,51.51,17.91v3c0,0-52.47-12.91-52.13-16.06
	C302.09,228.42,302.38,226.49,302.38,226.49z"/>
</svg>
