<?xml version="1.0" encoding="utf-8"?>
<!-- Generator: Adobe Illustrator 23.0.0, SVG Export Plug-In . SVG Version: 6.00 Build 0)  -->
<svg version="1.1" id="Laag_1" xmlns="http://www.w3.org/2000/svg" xmlns:xlink="http://www.w3.org/1999/xlink" x="0px" y="0px"
	 viewBox="0 0 20.16 50.4" style="enable-background:new 0 0 20.16 50.4;" xml:space="preserve">
<style type="text/css">
	.st0{fill:#CDC2C6;}
	.st1{fill:#756454;}
	.st2{fill:#713510;}
	.st3{fill:#F9AC5D;}
	.st4{fill:#F0482D;}
	.st5{fill:#F8C286;}
	.st6{opacity:0.18;fill:#FFFFFF;}
	.st7{fill:#FCFCFC;}
	.st8{fill:#0F100A;}
	.st9{fill:#97826A;}
	.st10{fill:#60655E;}
</style>
<g>
	<path d="M0,0h10.08c5.83,0,10.08,4.25,10.08,10.08v7.2c0,3.31-1.37,6.12-3.67,7.92c2.3,1.8,3.67,4.61,3.67,7.92v7.2
		c0,5.83-4.25,10.08-10.08,10.08H0V0z M10.08,20.88c0.86,0,1.44-0.58,1.44-1.44v-9.36c0-0.86-0.58-1.44-1.44-1.44H8.64v12.24H10.08z
		 M10.08,41.76c0.86,0,1.44-0.58,1.44-1.44v-9.36c0-0.86-0.58-1.44-1.44-1.44H8.64v12.24H10.08z"/>
</g>
</svg>
