<?xml version="1.0" encoding="utf-8"?>
<!-- Generator: Adobe Illustrator 23.0.0, SVG Export Plug-In . SVG Version: 6.00 Build 0)  -->
<svg version="1.1" id="Laag_1" xmlns="http://www.w3.org/2000/svg" xmlns:xlink="http://www.w3.org/1999/xlink" x="0px" y="0px"
	 viewBox="0 0 15.21 30.86" style="enable-background:new 0 0 15.21 30.86;" xml:space="preserve">
<style type="text/css">
	.st0{fill:#CDC2C6;}
	.st1{fill:#756454;}
	.st2{fill:#713510;}
	.st3{fill:#F9AC5D;}
	.st4{fill:#F0482D;}
	.st5{fill:#F8C286;}
	.st6{opacity:0.18;fill:#FFFFFF;}
	.st7{fill:#FCFCFC;}
	.st8{fill:#0F100A;}
	.st9{fill:#97826A;}
	.st10{fill:#60655E;}
	.st11{fill:#A7A477;}
</style>
<g>
	<path class="st11" d="M0.27,0c0.94,1.06,1.74,1.95,2.51,2.86c0.27,0.32,0.55,0.43,0.96,0.43c2.71-0.04,5.42-0.06,8.13-0.07
		c0.34,0,0.56-0.14,0.78-0.36c0.8-0.78,1.6-1.56,2.4-2.33c0.27,0.14,0.11,0.32,0.1,0.47c-0.17,1.68-0.37,3.36-0.53,5.05
		c-0.04,0.37-0.17,0.64-0.44,0.89c-0.69,0.64-1.35,1.32-2.03,1.97c-0.22,0.21-0.3,0.35,0,0.57c1.22,0.89,1.83,2.19,2.04,3.61
		c0.61,4.1,0.52,8.19-0.71,12.18c-0.63,2.03-1.81,3.76-3.69,4.89c-2,1.2-4.49,0.82-6.14-0.87c-1.3-1.34-2.07-2.97-2.57-4.73
		c-1.01-3.63-1.41-7.32-0.8-11.07c0.26-1.56,0.89-2.95,2.18-3.95C2.78,9.28,2.78,9.1,2.53,8.81C1.94,8.1,1.32,7.42,0.76,6.69
		C0.45,6.28,0.33,5.9,0.33,5.4C0.34,3.67,0.3,1.94,0.27,0z M10.79,5.75C8.66,5.76,6.61,5.77,4.56,5.79c-0.38,0-0.3,0.23-0.22,0.46
		c0.18,0.51,0.39,1.02,0.54,1.54C5,8.19,5.24,8.26,5.61,8.18c1.2-0.24,2.41-0.28,3.6,0.05C9.5,8.31,9.65,8.18,9.75,7.98
		C10.1,7.27,10.42,6.56,10.79,5.75z"/>
</g>
</svg>
