<?xml version="1.0" encoding="utf-8"?>
<!-- Generator: Adobe Illustrator 23.0.0, SVG Export Plug-In . SVG Version: 6.00 Build 0)  -->
<svg version="1.1" id="Laag_1" xmlns="http://www.w3.org/2000/svg" xmlns:xlink="http://www.w3.org/1999/xlink" x="0px" y="0px"
	 viewBox="0 0 47.59 96.57" style="enable-background:new 0 0 47.59 96.57;" xml:space="preserve">
<style type="text/css">
	.st0{fill:#CDC2C6;}
	.st1{fill:#756454;}
	.st2{fill:#713510;}
	.st3{fill:#F9AC5D;}
	.st4{fill:#F0482D;}
	.st5{fill:#F8C286;}
	.st6{opacity:0.18;fill:#FFFFFF;}
	.st7{fill:#FCFCFC;}
	.st8{fill:#0F100A;}
	.st9{fill:#97826A;}
	.st10{fill:#60655E;}
	.st11{fill:#A7A477;}
</style>
<g>
	<path class="st11" d="M0.86,0c2.94,3.32,5.45,6.09,7.86,8.94c0.83,0.99,1.72,1.36,3,1.34c8.48-0.12,16.96-0.19,25.44-0.21
		c1.06,0,1.76-0.45,2.44-1.11c2.5-2.44,5.01-4.88,7.5-7.31c0.84,0.43,0.35,1.01,0.31,1.46c-0.55,5.26-1.16,10.52-1.67,15.79
		c-0.11,1.17-0.53,2-1.38,2.79c-2.17,2.01-4.22,4.13-6.36,6.17c-0.69,0.66-0.95,1.09,0.01,1.79c3.82,2.79,5.74,6.86,6.4,11.29
		c1.91,12.83,1.64,25.64-2.21,38.12c-1.96,6.36-5.68,11.76-11.56,15.3c-6.26,3.77-14.06,2.57-19.2-2.73
		c-4.07-4.2-6.49-9.3-8.03-14.81c-3.17-11.36-4.42-22.9-2.49-34.63c0.8-4.88,2.8-9.23,6.81-12.38c0.98-0.76,0.96-1.34,0.18-2.26
		c-1.85-2.2-3.79-4.32-5.53-6.63c-0.96-1.28-1.34-2.46-1.34-4.02C1.06,11.49,0.94,6.07,0.86,0z M33.78,17.99
		c-6.69,0.04-13.09,0.07-19.5,0.12c-1.18,0.01-0.93,0.73-0.68,1.43c0.57,1.6,1.22,3.19,1.69,4.82c0.37,1.27,1.12,1.49,2.28,1.25
		c3.77-0.75,7.54-0.87,11.28,0.16c0.88,0.24,1.36-0.16,1.68-0.81C31.59,22.75,32.61,20.51,33.78,17.99z"/>
</g>
</svg>
