<?xml version="1.0" encoding="utf-8"?>
<!-- Generator: Adobe Illustrator 23.0.0, SVG Export Plug-In . SVG Version: 6.00 Build 0)  -->
<svg version="1.1" id="Laag_1" xmlns="http://www.w3.org/2000/svg" xmlns:xlink="http://www.w3.org/1999/xlink" x="0px" y="0px"
	 viewBox="0 0 77.16 156.56" style="enable-background:new 0 0 77.16 156.56;" xml:space="preserve">
<style type="text/css">
	.st0{fill:#CDC2C6;}
	.st1{fill:#756454;}
	.st2{fill:#713510;}
	.st3{fill:#F9AC5D;}
	.st4{fill:#F0482D;}
	.st5{fill:#F8C286;}
	.st6{opacity:0.18;fill:#FFFFFF;}
	.st7{fill:#FCFCFC;}
	.st8{fill:#0F100A;}
	.st9{fill:#97826A;}
	.st10{fill:#60655E;}
	.st11{fill:#A7A477;}
</style>
<g>
	<path class="st11" d="M1.39,0c4.76,5.39,8.84,9.87,12.75,14.5c1.35,1.6,2.78,2.21,4.86,2.18c13.75-0.19,27.5-0.3,41.25-0.34
		c1.72,0,2.85-0.72,3.96-1.8c4.06-3.96,8.12-7.91,12.16-11.84c1.36,0.69,0.57,1.63,0.5,2.36c-0.89,8.53-1.88,17.06-2.7,25.6
		c-0.18,1.9-0.86,3.24-2.24,4.53c-3.51,3.26-6.85,6.7-10.31,10.01c-1.11,1.06-1.54,1.77,0.01,2.9c6.2,4.52,9.3,11.12,10.37,18.31
		c3.09,20.8,2.66,41.58-3.59,61.8c-3.19,10.31-9.2,19.07-18.74,24.81c-10.15,6.11-22.8,4.17-31.13-4.43
		c-6.6-6.81-10.52-15.08-13.01-24.02c-5.14-18.42-7.16-37.14-4.03-56.15c1.3-7.91,4.53-14.96,11.05-20.06
		c1.58-1.24,1.55-2.18,0.29-3.67c-3.01-3.56-6.15-7.01-8.97-10.74c-1.56-2.07-2.17-3.99-2.17-6.51C1.72,18.63,1.52,9.84,1.39,0z
		 M54.77,29.16c-10.84,0.06-21.23,0.12-31.62,0.19c-1.92,0.01-1.51,1.19-1.1,2.33c0.92,2.6,1.97,5.17,2.74,7.81
		c0.6,2.06,1.81,2.41,3.69,2.03c6.11-1.22,12.23-1.41,18.29,0.26c1.43,0.39,2.21-0.26,2.72-1.32
		C51.22,36.88,52.86,33.26,54.77,29.16z"/>
</g>
</svg>
