<?xml version="1.0" encoding="utf-8"?>
<!-- Generator: Adobe Illustrator 23.0.4, SVG Export Plug-In . SVG Version: 6.00 Build 0)  -->
<svg version="1.1" id="Layer_1" xmlns="http://www.w3.org/2000/svg" xmlns:xlink="http://www.w3.org/1999/xlink" x="0px" y="0px"
	 viewBox="0 0 240 240" style="enable-background:new 0 0 240 240;" xml:space="preserve">
<path d="M10,240h140c5.5,0,10-4.5,10-10v-50.6c44.9-5,80-43.2,80-89.4c0-49.6-40.4-90-90-90c-46.2,0-84.4,35.1-89.4,80H10
	C4.5,80,0,84.5,0,90v140C0,235.5,4.5,240,10,240z M140,159.3c-30.6-4.4-54.9-28.7-59.3-59.3H140V159.3z M150,20
	c38.6,0,70,31.4,70,70c0,35.2-26.1,64.4-60,69.3V90c0-5.5-4.5-10-10-10H80.7C85.6,46.1,114.8,20,150,20z M20,100h40.6
	c4.6,41.7,37.8,74.8,79.4,79.4V220H20V100z"/>
</svg>
